<?xml version="1.0" encoding="UTF-8"?>
<svg id="Layer_1" xmlns="http://www.w3.org/2000/svg" version="1.1" viewBox="0 0 80 80">
  <!-- Generator: Adobe Illustrator 29.4.0, SVG Export Plug-In . SVG Version: 2.1.0 Build 152)  -->
  <defs>
    <style>
      .st0 {
        stroke-width: 4px;
      }

      .st0, .st1, .st2 {
        stroke: #000;
        stroke-linejoin: bevel;
      }

      .st0, .st2 {
        fill: #fff;
      }

      .st1 {
        fill: none;
      }

      .st1, .st2 {
        stroke-width: 3px;
      }
    </style>
  </defs>
  <path class="st0" d="M46,72h-22s-9-10-9-10V19l9-10h28l10,10v23M46,77v-14l-2-4-14-2-2-5,16-4,2-4v-16h3s8.39,13.4,8.39,13.4l3.49,1.4,14.12-6.8,3,3-10,11.68v4.55l10,10.77-2,3-15-5-3,1-8,13-4-1Z"/>
  <line class="st1" x1="21" y1="21.5" x2="45" y2="21.5"/>
  <line class="st1" x1="21.13" y1="27.5" x2="31" y2="27.5"/>
  <line class="st1" x1="35.13" y1="27.5" x2="42" y2="27.5"/>
  <path class="st2" d="M21.68,31.81"/>
  <line class="st1" x1="21" y1="33.5" x2="39" y2="33.5"/>
  <path class="st0" d="M62,42.2"/>
</svg>