<svg width="50" height="50" fill="none" version="1.1" viewBox="0 0 50 50" xmlns="http://www.w3.org/2000/svg"><g fill="#fff" stroke="#000" stroke-linecap="round" stroke-linejoin="round" stroke-miterlimit="10" stroke-width="3"><path d="m27.5 20.5v-15l2-2h3l2 2v15l-2 2h-3z"/><path d="m29.5 27.5h15l2 2v3l-2 2h-15l-2-2v-3z"/><path d="m39.5 17.5 2-2h3l2 2v3l-2 2h-5z"/><path d="m32.5 39.5 2 2v3l-2 2h-3l-2-2.5v-4.5z"/><path d="m22.5 29.5v15l-2 2h-3l-2-2v-15l2-2h3z"/><path d="m20.5 22.5h-15l-2-2v-3l2-2h15l2 2v3z"/><path d="m10.5 32.5-2 2h-3l-2-2v-3l2-2h5z"/><path d="m17.5 10.5-2-2v-3l2-2h3l2 2v5z"/></g></svg>
