<svg width="80" height="80" fill="none" version="1.1" viewBox="0 0 80 80" xmlns="http://www.w3.org/2000/svg"><g fill="#fff" stroke="#000" stroke-linecap="round" stroke-linejoin="round" stroke-miterlimit="10" stroke-width="4"><path d="m44 33v-21l3-3h4l3 3v21l-3 3h-4l-3-3z"/><path d="m36 47v21l-3 3h-4l-3-3v-21l3-3h4l3 3z"/><path d="m47 44h21l3 3v4l-3 3h-21l-3-3v-4l3-3z"/><path d="m33 36h-21l-3-3v-4l3-3h21l3 3v4l-3 3z"/><path d="m61 33v-4l3-3h4l3 3v4l-3 3h-7v-3z"/><path d="m19 47v4l-3 3h-4l-3-3v-4l3-3h7v3z"/><path d="m47 61h4l3 3v4l-3 3h-4l-3-3v-7h3z"/><path d="m33 19h-4l-3-3v-4l3-3h4l3 3v7h-3z"/></g></svg>
