<?xml version="1.0" encoding="UTF-8"?>
<svg id="Layer_1" xmlns="http://www.w3.org/2000/svg" version="1.1" viewBox="0 0 24.11 24.91">
  <!-- Generator: Adobe Illustrator 29.4.0, SVG Export Plug-In . SVG Version: 2.1.0 Build 152)  -->
  <defs>
    <style>
      .st0 {
        fill: #fff;
        stroke: #000;
        stroke-linecap: round;
        stroke-linejoin: round;
        stroke-width: 2px;
      }
    </style>
  </defs>
  <polygon class="st0" points="3 17.9 3 8.91 9 2.91 17 2.91 23 8.91 23 17.91 17 23.91 9 23.91 3 17.9"/>
  <polygon class="st0" points="18 16.91 18 12.91 17.98 12.91 17.98 12.91 15 12.91 15 14.91 13 16.91 11 16.91 11 19.91 15 19.91 18 16.91"/>
  <polygon class="st0" points="8 9.91 8.01 13.91 8.01 13.91 9.01 13.91 11 13.91 11 11.91 12.98 9.91 14 9.91 14 6.91 11 6.91 8 9.91"/>
</svg>