<?xml version="1.0" encoding="UTF-8"?>
<svg id="Layer_1" xmlns="http://www.w3.org/2000/svg" version="1.1" viewBox="0 0 24.11 24.91">
  <!-- Generator: Adobe Illustrator 29.4.0, SVG Export Plug-In . SVG Version: 2.1.0 Build 152)  -->
  <defs>
    <style>
      .st0 {
        fill: #fff;
        stroke: #000;
        stroke-linecap: round;
        stroke-linejoin: round;
        stroke-width: 2px;
      }
    </style>
  </defs>
  <polygon class="st0" points="2.96 17.87 2.88 8.83 8.82 2.89 17.13 2.89 23.07 8.83 23.07 17.93 17.13 23.87 8.82 23.87 2.96 17.87"/>
  <polygon class="st0" points="17.96 16.91 17.94 12.9 17.94 12.9 17.94 12.9 15.08 12.91 15.09 15.12 13.23 17.06 11.42 17.06 11.4 20.1 15.09 20.12 17.96 16.91"/>
  <polygon class="st0" points="7.9 9.85 7.91 13.7 7.91 13.7 8.91 13.7 10.91 13.7 10.9 11.85 12.9 9.85 13.99 9.85 13.97 6.85 10.9 6.85 7.9 9.85"/>
</svg>